<svg xmlns="http://www.w3.org/2000/svg" viewBox="0 0 1080 1080">
  <path fill="currentColor" d="M525.96 235.97c46.197 0 87.67 8.883 124.363 26.65 36.72 17.171 67.81 39.973 93.244 68.376 26.083 27.838 45.914 59.522 59.522 95.055 14.201 35.532 21.302 71.63 21.302 108.35 0 26.65-2.66 51.205-7.978 73.724-5.346 22.519-12.73 43.227-22.207 62.182-9.477 18.954-20.426 36.409-32.873 52.393a330.739 330.739 0 0 1-39.069 42.633l29.309 32.873c23.084 21.302 48.262 40.256 75.477 56.834 27.272 17.172 54.798 31.402 82.607 42.633 27.838 11.854 55.392 20.737 82.607 26.65 27.272 5.912 52.138 8.883 74.6 8.883 19.55 0 40.286-1.783 62.182-5.347 22.519-3.537 45.038-8.855 67.5-15.984 23.113-7.1 45.915-16.55 68.405-28.403 22.49-11.26 43.822-24.867 63.936-40.88l5.347 8.007c-19.549 21.33-41.445 39.973-65.746 55.957-24.245 16.578-49.734 30.186-76.383 40.851a439.014 439.014 0 0 1-82.607 23.99c-27.81 5.913-55.335 8.883-82.579 8.883-27.243 0-54.458-2.376-81.73-7.1-27.215-4.753-54.458-12.76-81.701-23.99-27.243-11.232-54.458-26.65-81.73-46.198-27.215-18.954-54.458-42.916-81.701-71.942l-30.214-31.967c-10.043 6.535-21.585 12.447-34.627 17.766-12.448 4.752-25.772 8.883-39.974 12.447a355.311 355.311 0 0 1-43.51 7.978c-14.796 1.782-28.714 2.66-41.756 2.66-41.445 0-79.947-8.29-115.451-24.868-34.939-17.172-65.435-39.38-91.49-66.622-25.461-27.838-45.575-59.494-60.4-95.027-14.795-35.532-22.207-71.941-22.207-109.256 0-37.88 6.818-75.166 20.425-111.887 13.636-37.314 33.467-70.498 59.522-99.495 26.65-28.998 58.929-52.394 96.809-70.16 37.908-17.766 80.824-26.649 128.776-26.649Zm-.877 572.873c39.69-1.754 74.6-10.637 104.814-26.621 30.186-16.578 55.053-37.315 74.601-62.182 20.143-25.46 35.25-53.298 45.292-83.483 10.072-30.214 15.107-59.834 15.107-88.831 0-32.562-6.224-65.435-18.671-98.59-11.825-33.75-28.686-63.936-50.61-90.585-21.332-27.244-47.358-49.168-78.166-65.746-30.78-17.172-64.84-25.744-102.155-25.744-36.693 0-69.848 8.289-99.468 24.867-28.997 15.984-53.553 36.72-73.724 62.181-20.114 25.433-35.532 53.864-46.17 85.266-10.664 30.78-15.983 61.276-15.983 91.462 0 32.562 5.913 65.435 17.738 98.59 12.448 33.185 29.62 63.087 51.516 89.708 21.953 26.65 47.697 48.291 77.288 64.84 30.186 16.579 63.059 24.868 98.59 24.868Z"/>
</svg>