<svg xmlns="http://www.w3.org/2000/svg"  viewBox="-1 -1 121 29">
  <path fill="currentcolor" d="M11.008.092c1.664 0 3.157.32 4.48.96 1.323.619 2.443 1.44 3.36 2.464a10.424 10.424 0 0 1 2.144 3.424 10.43 10.43 0 0 1 .768 3.904c0 .96-.096 1.845-.288 2.656-.192.81-.459 1.557-.8 2.24a11.281 11.281 0 0 1-1.184 1.888 12.024 12.024 0 0 1-1.408 1.536l1.056 1.184c.832.768 1.739 1.45 2.72 2.048.981.619 1.973 1.13 2.976 1.536 1.003.427 1.995.747 2.976.96.981.213 1.877.32 2.688.32.704 0 1.45-.064 2.24-.192a16.77 16.77 0 0 0 2.432-.576 14.343 14.343 0 0 0 2.464-1.024c.81-.405 1.579-.896 2.304-1.472l.192.288a12.6 12.6 0 0 1-2.368 2.016 14.263 14.263 0 0 1-2.752 1.472c-.96.384-1.952.672-2.976.864-1.003.213-1.995.32-2.976.32-.981 0-1.963-.085-2.944-.256a13.978 13.978 0 0 1-2.944-.864 14.693 14.693 0 0 1-2.944-1.664c-.981-.683-1.963-1.547-2.944-2.592l-1.088-1.152a7.572 7.572 0 0 1-1.248.64 12.828 12.828 0 0 1-3.008.736c-.533.064-1.035.096-1.504.096-1.493 0-2.88-.299-4.16-.896a11.598 11.598 0 0 1-3.296-2.4A11.691 11.691 0 0 1 .8 15.132a10.15 10.15 0 0 1-.8-3.936c0-1.365.245-2.71.736-4.032A10.911 10.911 0 0 1 2.88 3.58c.96-1.045 2.123-1.888 3.488-2.528 1.365-.64 2.912-.96 4.64-.96Zm-.032 20.64c1.43-.064 2.688-.384 3.776-.96 1.088-.597 1.984-1.344 2.688-2.24a9.831 9.831 0 0 0 1.632-3.008c.363-1.088.544-2.155.544-3.2 0-1.173-.224-2.357-.672-3.552a10.64 10.64 0 0 0-1.824-3.264 8.883 8.883 0 0 0-2.816-2.368c-1.11-.619-2.336-.928-3.68-.928-1.323 0-2.517.299-3.584.896a8.7 8.7 0 0 0-2.656 2.24A10.203 10.203 0 0 0 2.72 7.42a10.029 10.029 0 0 0-.576 3.296c0 1.173.213 2.357.64 3.552A11.291 11.291 0 0 0 4.64 17.5a9.738 9.738 0 0 0 2.784 2.336 7.261 7.261 0 0 0 3.552.896Z"/>
  <path fill="currentcolor" d="M24.976.412h4.576v.32h-.16a.581.581 0 0 0-.416.192 1.272 1.272 0 0 0-.32.416c-.086.15-.16.33-.224.544a2.39 2.39 0 0 0-.064.512v17.056c0 .17.02.363.064.576.042.192.106.373.192.544.106.17.213.32.32.448a.614.614 0 0 0 .448.192h.16v.32h-4.576v-.32h.16c.17 0 .32-.053.448-.16.128-.128.234-.277.32-.448.106-.192.18-.384.224-.576.042-.213.064-.405.064-.576V2.396c0-.15-.022-.32-.064-.512a1.727 1.727 0 0 0-.224-.544 1.272 1.272 0 0 0-.32-.416.614.614 0 0 0-.448-.192h-.16v-.32Zm15.749 20.8h.16v.32H36.34v-.32h.16c.17 0 .32-.064.448-.192a1.71 1.71 0 0 0 .32-.448 1.73 1.73 0 0 0 .224-.544 2.97 2.97 0 0 0 .064-.576V1.596h-3.712c-.342 0-.64.075-.896.224a2.07 2.07 0 0 0-.64.576c-.17.213-.299.459-.384.736a2.417 2.417 0 0 0-.128.768h-.32V.412h14.368V3.9h-.32c0-.256-.043-.512-.128-.768a2.204 2.204 0 0 0-.384-.736 2.073 2.073 0 0 0-.64-.576 1.746 1.746 0 0 0-.896-.224H39.7v17.856c0 .17.021.363.064.576.042.192.106.373.192.544.106.17.213.32.32.448a.614.614 0 0 0 .448.192ZM57.111 1.244c-1.578 0-2.954.288-4.127.864-1.153.555-2.113 1.29-2.88 2.208a9.146 9.146 0 0 0-1.728 3.04 10.953 10.953 0 0 0-.544 3.36 9.84 9.84 0 0 0 .736 3.712 10.84 10.84 0 0 0 2.016 3.2 10.903 10.903 0 0 0 3.04 2.24c1.151.555 2.4.832 3.743.832a8.35 8.35 0 0 0 1.345-.128 6.04 6.04 0 0 0 1.567-.48 5.079 5.079 0 0 0 1.408-1.056c.449-.448.79-1.035 1.025-1.76h.32v3.552c-.32 0-.662.043-1.024.128l-1.153.288c-.554.15-1.173.288-1.855.416-.662.128-1.366.192-2.112.192-1.856 0-3.488-.32-4.896-.96-1.408-.64-2.582-1.472-3.52-2.496a10.34 10.34 0 0 1-2.113-3.456 11.528 11.528 0 0 1-.703-3.936c0-1.323.234-2.635.703-3.936a10.025 10.025 0 0 1 2.145-3.488c.96-1.045 2.165-1.888 3.616-2.528 1.45-.64 3.157-.96 5.12-.96a8.43 8.43 0 0 1 1.887.192c.576.128 1.088.256 1.536.384.32.107.609.192.865.256.277.043.544.064.8.064V4.54h-.32c-.129-.661-.363-1.205-.705-1.632a3.475 3.475 0 0 0-1.215-1.024 4.775 4.775 0 0 0-1.473-.48 7.363 7.363 0 0 0-1.504-.16Zm21.442 19.968h.16c.15 0 .288-.053.416-.16.128-.128.235-.277.32-.448.107-.192.181-.384.224-.576.043-.213.064-.405.064-.576v-8.704h-10.24v8.704c0 .17.021.363.064.576a2.356 2.356 0 0 0 .48.992.614.614 0 0 0 .448.192h.16v.32h-4.48v-.32h.16c.15 0 .288-.053.416-.16.128-.128.235-.277.32-.448.107-.192.181-.384.224-.576.043-.213.064-.405.064-.576V2.396c0-.15-.021-.32-.064-.512a2.356 2.356 0 0 0-.192-.544 1.272 1.272 0 0 0-.32-.416.614.614 0 0 0-.448-.192h-.16v-.32h4.48v.32h-.16c-.17 0-.32.064-.448.192a1.272 1.272 0 0 0-.32.416 4.07 4.07 0 0 0-.16.544 2.39 2.39 0 0 0-.064.512v7.232h10.24V2.396c0-.15-.021-.32-.064-.512a2.356 2.356 0 0 0-.192-.544 1.272 1.272 0 0 0-.32-.416.614.614 0 0 0-.448-.192h-.16v-.32h4.48v.32h-.16c-.17 0-.32.064-.448.192a1.272 1.272 0 0 0-.32.416 4.07 4.07 0 0 0-.16.544 2.39 2.39 0 0 0-.064.512v17.056c0 .17.021.363.064.576.064.192.139.373.224.544.085.17.181.32.288.448a.581.581 0 0 0 .416.192h.16v.32h-4.48v-.32Zm7.138 0h.16c.17 0 .32-.053.448-.16.128-.128.235-.277.32-.448.107-.17.182-.352.224-.544.064-.192.096-.373.096-.544V2.396c0-.15-.032-.32-.096-.512a1.727 1.727 0 0 0-.224-.544 1.272 1.272 0 0 0-.32-.416.614.614 0 0 0-.448-.192h-.16v-.32h12.32v2.976h-.32a2.082 2.082 0 0 0-.576-1.28c-.341-.384-.874-.576-1.6-.576h-6.432v8.096h5.312c.49 0 .896-.15 1.216-.448.342-.299.512-.65.512-1.056h.32v4h-.32c0-.384-.16-.715-.48-.992-.32-.277-.736-.416-1.248-.416h-5.312v9.696h7.008a1.91 1.91 0 0 0 1.056-.288 2.8 2.8 0 0 0 .736-.672 2.58 2.58 0 0 0 .448-.864c.107-.32.16-.587.16-.8h.32v3.744h-13.12v-.32Zm18.892 0h.16v.32h-3.553v-.32h.161a.581.581 0 0 0 .416-.192c.149-.128.266-.277.351-.448.086-.17.15-.352.193-.544.064-.213.096-.405.096-.576V2.396c0-.15-.022-.32-.065-.512a1.6 1.6 0 0 0-.159-.544 1.117 1.117 0 0 0-.353-.416.806.806 0 0 0-.544-.192h-.159v-.32h3.232l11.616 18.304V2.396c0-.15-.032-.32-.096-.512a1.75 1.75 0 0 0-.224-.544 1.282 1.282 0 0 0-.32-.416.615.615 0 0 0-.448-.192h-.16v-.32h3.584v.32h-.161c-.17 0-.32.064-.448.192a1.73 1.73 0 0 0-.351.416c-.086.17-.15.352-.192.544a2.377 2.377 0 0 0-.065.512v19.136h-1.983L103.527 3.164v16.288c0 .17.021.363.063.576.043.192.107.373.193.544.106.17.224.32.351.448a.616.616 0 0 0 .449.192Z"/>
</svg>