<!-- <?xml version="1.0" encoding="utf-8"?> -->
<svg viewBox="37.079 4.821 42.887 42.878" fill="none" xmlns="http://www.w3.org/2000/svg">
  <path d="M 57.697 15.532 C 59.33 15.532 60.796 15.846 62.093 16.474 C 63.391 17.081 64.49 17.887 65.389 18.891 C 66.311 19.875 67.012 20.995 67.493 22.251 C 67.995 23.507 68.246 24.783 68.246 26.081 C 68.246 27.023 68.152 27.891 67.964 28.687 C 67.775 29.483 67.514 30.215 67.179 30.885 C 66.844 31.555 66.457 32.172 66.017 32.737 C 65.599 33.282 65.138 33.784 64.636 34.244 L 65.672 35.406 C 66.488 36.159 67.378 36.829 68.34 37.415 C 69.304 38.022 70.277 38.525 71.26 38.922 C 72.244 39.341 73.218 39.655 74.18 39.864 C 75.144 40.073 76.023 40.178 76.817 40.178 C 77.508 40.178 78.241 40.115 79.015 39.989 C 79.811 39.864 80.607 39.676 81.401 39.424 C 82.218 39.173 83.024 38.839 83.819 38.42 C 84.614 38.022 85.368 37.541 86.079 36.975 L 86.268 37.258 C 85.577 38.012 84.803 38.671 83.944 39.236 C 83.087 39.822 82.186 40.303 81.244 40.68 C 80.302 41.057 79.329 41.34 78.324 41.528 C 77.341 41.737 76.368 41.842 75.405 41.842 C 74.442 41.842 73.48 41.758 72.516 41.591 C 71.554 41.423 70.591 41.14 69.628 40.743 C 68.665 40.346 67.703 39.801 66.739 39.11 C 65.777 38.44 64.814 37.593 63.851 36.567 L 62.783 35.437 C 62.428 35.668 62.02 35.877 61.559 36.065 C 61.119 36.233 60.648 36.379 60.146 36.505 C 59.644 36.63 59.132 36.724 58.608 36.787 C 58.085 36.85 57.593 36.881 57.132 36.881 C 55.667 36.881 54.306 36.588 53.051 36.002 C 51.816 35.395 50.738 34.61 49.817 33.647 C 48.917 32.663 48.206 31.544 47.682 30.288 C 47.159 29.032 46.897 27.745 46.897 26.426 C 46.897 25.087 47.138 23.769 47.619 22.471 C 48.101 21.152 48.802 19.979 49.723 18.954 C 50.665 17.929 51.806 17.102 53.145 16.474 C 54.485 15.846 56.002 15.532 57.697 15.532 Z M 57.666 35.782 C 59.069 35.72 60.303 35.406 61.371 34.841 C 62.438 34.255 63.317 33.522 64.008 32.643 C 64.72 31.743 65.254 30.759 65.609 29.692 C 65.965 28.624 66.143 27.577 66.143 26.552 C 66.143 25.401 65.923 24.239 65.483 23.067 C 65.065 21.874 64.469 20.807 63.694 19.865 C 62.94 18.902 62.02 18.127 60.931 17.541 C 59.843 16.934 58.639 16.631 57.32 16.631 C 56.023 16.631 54.851 16.924 53.804 17.51 C 52.779 18.075 51.911 18.808 51.198 19.708 C 50.487 20.607 49.942 21.612 49.566 22.722 C 49.189 23.81 49.001 24.888 49.001 25.955 C 49.001 27.106 49.21 28.268 49.628 29.44 C 50.068 30.613 50.675 31.67 51.449 32.611 C 52.225 33.553 53.135 34.318 54.181 34.903 C 55.248 35.489 56.41 35.782 57.666 35.782 Z" fill="#EFE7D2" style="" transform="matrix(1, 0, 0, 1, 3.552713678800501e-15, 0)"/>
  <rect x="37.612" y="5.245" width="42.143" height="42.143" style="" transform="matrix(1, 0, 0, 1, 3.552713678800501e-15, 0)"/>
</svg>